HIERARCHY
ROOT Hips
{
	OFFSET 0.000000 0.000000 0.000000
	CHANNELS 6 Xposition Yposition Zposition Zrotation Yrotation Xrotation 
	JOINT LHipJoint
	{
		OFFSET 0.000000 0.000000 0.000000
		CHANNELS 3 Zrotation Yrotation Xrotation
		JOINT LeftUpLeg
		{
			OFFSET 1.363060 -1.794630 0.839290
			CHANNELS 3 Zrotation Yrotation Xrotation
			JOINT LeftLeg
			{
				OFFSET 2.448110 -6.726130 0.000000
				CHANNELS 3 Zrotation Yrotation Xrotation
				JOINT LeftFoot
				{
					OFFSET 2.562200 -7.039590 0.000000
					CHANNELS 3 Zrotation Yrotation Xrotation
					JOINT LeftToeBase
					{
						OFFSET 0.157640 -0.433110 2.322550
						CHANNELS 3 Zrotation Yrotation Xrotation
						End Site
						{
							OFFSET 0.000000 0.000000 0.000000
						}
					}
				}
			}
		}
	}
	JOINT RHipJoint
	{
		OFFSET 0.000000 0.000000 0.000000
		CHANNELS 3 Zrotation Yrotation Xrotation
		JOINT RightUpLeg
		{
			OFFSET -1.305520 -1.794630 0.839290
			CHANNELS 3 Zrotation Yrotation Xrotation
			JOINT RightLeg
			{
				OFFSET -2.542530 -6.985550 0.000000
				CHANNELS 3 Zrotation Yrotation Xrotation
				JOINT RightFoot
				{
					OFFSET -2.568260 -7.056230 0.000000
					CHANNELS 3 Zrotation Yrotation Xrotation
					JOINT RightToeBase
					{
						OFFSET -0.164730 -0.452590 2.363150
						CHANNELS 3 Zrotation Yrotation Xrotation
						End Site
						{
							OFFSET 0.000000 0.000000 0.000000
						}
					}
				}
			}
		}
	}
	JOINT LowerBack
	{
		OFFSET 0.000000 0.000000 0.000000
		CHANNELS 3 Zrotation Yrotation Xrotation
		JOINT Spine
		{
			OFFSET 0.028270 2.035590 -0.193380
			CHANNELS 3 Zrotation Yrotation Xrotation
			JOINT Spine1
			{
				OFFSET 0.056720 2.048850 -0.042750
				CHANNELS 3 Zrotation Yrotation Xrotation
				JOINT Neck
				{
					OFFSET 0.000000 0.000000 0.000000
					CHANNELS 3 Zrotation Yrotation Xrotation
					JOINT Neck1
					{
						OFFSET -0.054170 1.746240 0.172020
						CHANNELS 3 Zrotation Yrotation Xrotation
						JOINT Head
						{
							OFFSET 0.104070 1.761360 -0.123970
							CHANNELS 3 Zrotation Yrotation Xrotation
							End Site
							{
								OFFSET 0.000000 0.000000 0.000000
							}
						}
					}
				}
				JOINT LeftShoulder
				{
					OFFSET 0.000000 0.000000 0.000000
					CHANNELS 3 Zrotation Yrotation Xrotation
					JOINT LeftArm
					{
						OFFSET 3.362410 1.200890 -0.311210
						CHANNELS 3 Zrotation Yrotation Xrotation
						JOINT LeftForeArm
						{
							OFFSET 4.983000 -0.000000 -0.000000
							CHANNELS 3 Zrotation Yrotation Xrotation
							JOINT LeftHand
							{
								OFFSET 3.483560 -0.000000 -0.000000
								CHANNELS 3 Zrotation Yrotation Xrotation
								JOINT LeftFingerBase
								{
									OFFSET 0.000000 0.000000 0.000000
									CHANNELS 3 Zrotation Yrotation Xrotation
									JOINT LeftHandIndex1
									{
										OFFSET 0.715260 -0.000000 -0.000000
										CHANNELS 3 Zrotation Yrotation Xrotation
										End Site
										{
											OFFSET 0.000000 0.000000 0.000000
										}
									}
								}
								JOINT LThumb
								{
									OFFSET 0.000000 0.000000 0.000000
									CHANNELS 3 Zrotation Yrotation Xrotation
									End Site
									{
										OFFSET 0.000000 0.000000 0.000000
									}
								}
							}
						}
					}
				}
				JOINT RightShoulder
				{
					OFFSET 0.000000 0.000000 0.000000
					CHANNELS 3 Zrotation Yrotation Xrotation
					JOINT RightArm
					{
						OFFSET -3.136600 1.374050 -0.404650
						CHANNELS 3 Zrotation Yrotation Xrotation
						JOINT RightForeArm
						{
							OFFSET -5.241900 -0.000000 -0.000000
							CHANNELS 3 Zrotation Yrotation Xrotation
							JOINT RightHand
							{
								OFFSET -3.444170 -0.000000 -0.000000
								CHANNELS 3 Zrotation Yrotation Xrotation
								JOINT RightFingerBase
								{
									OFFSET 0.000000 0.000000 0.000000
									CHANNELS 3 Zrotation Yrotation Xrotation
									JOINT RightHandIndex1
									{
										OFFSET -0.622530 -0.000000 -0.000000
										CHANNELS 3 Zrotation Yrotation Xrotation
										End Site
										{
											OFFSET 0.000000 0.000000 0.000000
										}
									}
								}
								JOINT RThumb
								{
									OFFSET 0.000000 0.000000 0.000000
									CHANNELS 3 Zrotation Yrotation Xrotation
									End Site
									{
										OFFSET 0.000000 0.000000 0.000000
									}
								}
							}
						}
					}
				}
			}
		}
	}
}
MOTION
Frames: 4
Frame Time: 0.008333
-7.600165 15.020871 8.090781 -28.955783 49.914096 -9.595601 6.718458 12.589150 -3.386011 -29.562722 -0.865545 -0.437297 1.118939 1.856132 34.652711 7.296133 -18.881976 -21.147831 -2.351681 0.300568 13.990996 12.636298 -22.020363 9.684689 3.416075 32.122934 -58.640461 -7.616608 0.276198 27.459352 19.518049 5.149107 13.686540 -2.704403 -0.230316 -17.497546 -4.706503 3.058586 8.158892 10.013793 -2.006790 -5.838599 12.119866 -5.605905 8.433315 -5.220616 4.312386 -12.498544 7.369602 4.106558 25.674721 -28.840642 25.798754 -8.595017 5.194625 -7.183437 10.658244 -82.255176 -48.415874 43.578710 80.063397 -62.149979 -5.064085 -6.754497 -55.043615 11.978911 0.000001 -0.000001 -0.000001 -0.000000 -0.000000 -0.000000 -0.000000 0.000000 -0.000000 -6.067613 -8.321468 3.914067 57.702888 -3.650037 -1.232785 1.708337 42.251339 24.496002 -9.849618 32.116241 1.615605 0.000002 0.000001 -0.000002 -0.000000 0.000000 0.000000 -0.000000 0.000000 0.000000 
-7.440480 15.037538 8.265465 -29.717121 50.287157 -9.922911 7.130392 12.522355 -3.478235 -29.295559 -0.241962 -0.256006 1.396706 1.551923 34.802383 4.884017 -18.960685 -18.263514 -2.400088 0.884949 13.975601 11.641872 -22.160809 10.259275 5.060678 32.292206 -57.994093 -6.554650 -0.801081 22.969620 23.446692 6.946635 17.645028 -2.138855 -1.120680 -18.932959 -4.662130 3.069282 7.436899 9.783043 -1.769877 -5.809246 12.542310 -5.490105 8.177554 -5.377823 4.268842 -12.507886 7.617868 4.076311 25.496925 -28.490651 25.955056 -8.049757 5.380018 -7.255111 10.339231 -81.738423 -48.118100 42.853781 81.569451 -62.256723 -5.367240 -7.329846 -55.388382 12.380100 0.000001 -0.000001 -0.000001 -0.000000 0.000000 0.000000 0.000000 0.000000 -0.000000 -6.372409 -8.541833 3.883013 58.225505 -3.411995 -0.063600 1.131678 43.366220 24.062978 -10.767777 31.835103 1.327894 0.000002 0.000001 -0.000002 0.000000 -0.000000 -0.000000 0.000000 -0.000000 0.000000 
-7.276276 15.051502 8.430420 -30.516007 50.645646 -10.263601 7.573296 12.174677 -3.432303 -29.073832 0.030084 -0.149104 1.616371 1.623702 34.806405 1.333790 -18.736052 -15.129464 -2.091613 0.422028 12.283338 10.435510 -21.710397 10.659849 6.904492 31.963767 -56.872507 -4.734289 -0.785243 18.363660 26.681830 7.159742 21.474160 -1.866514 -1.739607 -20.847256 -4.416055 2.950951 6.741034 9.480566 -1.629328 -5.791282 13.061614 -5.578283 8.102344 -5.773514 4.237015 -12.690001 7.777245 4.107642 25.318745 -28.552222 26.025868 -8.032943 5.301584 -6.846584 10.204828 -81.219711 -48.153822 41.648050 82.940745 -62.843090 -5.413118 -8.238817 -56.136830 13.087600 0.000001 -0.000001 -0.000001 -0.000000 -0.000000 0.000000 0.000000 0.000000 -0.000000 -6.845137 -8.467052 3.817892 58.667218 -2.955014 0.958583 0.577319 44.422031 23.670050 -11.500655 31.622615 1.096452 0.000002 0.000001 -0.000002 -0.000000 -0.000000 0.000000 0.000000 -0.000000 0.000000 
-7.116306 15.050601 8.586441 -31.118581 51.190349 -10.700981 7.753001 11.818645 -3.360276 -28.883512 0.086446 -0.449000 1.889007 1.532346 35.993604 -2.035600 -17.808396 -11.790055 -1.417607 -2.263518 9.946169 9.842453 -21.269433 10.886854 8.770270 31.069231 -56.444298 -3.833734 -0.790386 16.704520 29.567139 7.524812 23.913127 -1.481809 -1.979671 -19.975230 -4.162477 2.766003 6.379442 9.290502 -1.732479 -5.835368 13.343402 -5.831340 8.170915 -6.103381 4.382039 -12.966881 7.538998 4.348100 25.243305 -28.361214 26.226575 -8.286188 5.203900 -5.933641 10.209809 -80.874077 -48.153088 40.570855 84.211917 -63.252113 -6.073553 -9.347777 -56.554514 13.822518 0.000001 -0.000001 -0.000001 0.000000 0.000000 -0.000000 0.000000 -0.000000 0.000000 -7.300361 -7.912894 3.714617 59.002173 -2.195338 1.836527 0.199429 45.473622 23.550097 -11.865344 31.769439 0.994141 0.000002 0.000001 -0.000002 0.000000 0.000000 -0.000000 0.000000 0.000000 -0.000000 
